<svg xmlns="http://www.w3.org/2000/svg" viewBox="0 0 320 240" role="img" aria-labelledby="title desc">
  <title id="title">기본 라멘 이미지</title>
  <desc id="desc">쇼유 색상의 국물과 고명이 담긴 라멘 그릇 일러스트</desc>
  <defs>
    <linearGradient id="bg" x1="44" x2="276" y1="24" y2="220" gradientUnits="userSpaceOnUse">
      <stop stop-color="#fff8f1"/>
      <stop offset="1" stop-color="#f1e3d7"/>
    </linearGradient>
    <linearGradient id="broth" x1="88" x2="232" y1="86" y2="152" gradientUnits="userSpaceOnUse">
      <stop stop-color="#f4c06f"/>
      <stop offset=".52" stop-color="#c96a1c"/>
      <stop offset="1" stop-color="#8f3d06"/>
    </linearGradient>
    <filter id="shadow" x="50" y="58" width="220" height="150" color-interpolation-filters="sRGB" filterUnits="userSpaceOnUse">
      <feDropShadow dx="0" dy="12" flood-color="#5c2c12" flood-opacity=".16" stdDeviation="10"/>
    </filter>
  </defs>
  <rect width="320" height="240" rx="36" fill="url(#bg)"/>
  <circle cx="68" cy="54" r="22" fill="#fff" opacity=".55"/>
  <circle cx="260" cy="184" r="30" fill="#fff" opacity=".35"/>
  <g fill="none" stroke="#9aa3ad" stroke-linecap="round" stroke-width="6" opacity=".7">
    <path d="M114 62c-12-14-12-30 0-44"/>
    <path d="M160 56c-12-14-12-30 0-44"/>
    <path d="M206 62c-12-14-12-30 0-44"/>
  </g>
  <g filter="url(#shadow)">
    <ellipse cx="160" cy="126" rx="92" ry="62" fill="#fffdf9"/>
    <ellipse cx="160" cy="118" rx="76" ry="42" fill="url(#broth)"/>
    <path d="M78 126c10 52 42 78 82 78s72-26 82-78" fill="#fff7ee"/>
    <path d="M85 128c18 44 45 63 75 63s57-19 75-63" fill="#d86b14"/>
    <path d="M96 128c18 32 40 46 64 46s46-14 64-46" fill="#b95108"/>
    <path d="M95 126h130" stroke="#fffdf9" stroke-linecap="round" stroke-width="7" opacity=".9"/>
    <path d="M111 111c21 10 42 10 63 0 18-8 36-8 55 0" fill="none" stroke="#ffe0a3" stroke-linecap="round" stroke-width="8"/>
    <path d="M116 126c16 7 32 7 48 0 16-6 32-6 48 0" fill="none" stroke="#f7b74f" stroke-linecap="round" stroke-width="6"/>
    <circle cx="126" cy="101" r="17" fill="#fff1d4"/>
    <circle cx="126" cy="101" r="7" fill="#f2b537"/>
    <circle cx="194" cy="101" r="16" fill="#ffe0dc"/>
    <path d="M181 91a22 22 0 0 1 28 20" fill="none" stroke="#d94b38" stroke-linecap="round" stroke-width="7"/>
    <path d="M144 86h48" stroke="#354052" stroke-linecap="round" stroke-width="7"/>
    <path d="M213 91l20-14" stroke="#2f2a24" stroke-linecap="round" stroke-width="6"/>
    <path d="M220 99l22-14" stroke="#2f2a24" stroke-linecap="round" stroke-width="6"/>
  </g>
</svg>
